<svg id="visual" viewBox="0 0 900 600" width="900" height="600" xmlns="http://www.w3.org/2000/svg" xmlns:xlink="http://www.w3.org/1999/xlink" version="1.1"><path d="M0 390L21.5 387.7C43 385.3 86 380.7 128.8 382.2C171.7 383.7 214.3 391.3 257.2 412C300 432.7 343 466.3 385.8 470.3C428.7 474.3 471.3 448.7 514.2 433.2C557 417.7 600 412.3 642.8 409.2C685.7 406 728.3 405 771.2 413.7C814 422.3 857 440.7 878.5 449.8L900 459L900 601L878.5 601C857 601 814 601 771.2 601C728.3 601 685.7 601 642.8 601C600 601 557 601 514.2 601C471.3 601 428.7 601 385.8 601C343 601 300 601 257.2 601C214.3 601 171.7 601 128.8 601C86 601 43 601 21.5 601L0 601Z" fill="#3c5ac4" stroke-linecap="round" stroke-linejoin="miter"></path></svg>